<svg width="302" height="532" viewBox="0 0 302 532" fill="none" xmlns="http://www.w3.org/2000/svg">
<rect width="302" height="532" fill="#0000FF"/>
<path d="M111.656 271H114.381V269.747H114.44C114.759 270.523 115.494 271.099 116.568 271.099C118.199 271.099 119.571 269.827 119.571 267.182C119.571 264.418 118.099 263.264 116.588 263.264C115.455 263.264 114.739 263.92 114.44 264.696H114.401V260.818H111.656V271ZM114.341 267.182C114.341 266.048 114.798 265.372 115.554 265.372C116.31 265.372 116.747 266.048 116.747 267.182C116.747 268.315 116.31 268.991 115.554 268.991C114.798 268.991 114.341 268.295 114.341 267.182ZM124.398 271.139C126.884 271.139 128.356 269.548 128.356 267.202C128.356 264.855 126.884 263.264 124.398 263.264C121.913 263.264 120.441 264.855 120.441 267.202C120.441 269.548 121.913 271.139 124.398 271.139ZM124.418 269.111C123.683 269.111 123.245 268.38 123.245 267.182C123.245 265.984 123.683 265.253 124.418 265.253C125.114 265.253 125.552 265.984 125.552 267.182C125.552 268.38 125.114 269.111 124.418 269.111ZM131.597 271.119C132.592 271.119 133.342 270.781 133.805 269.926H133.864V271H136.43V265.77C136.43 264.358 135.092 263.264 132.91 263.264C130.628 263.264 129.504 264.457 129.41 265.849H131.935C132 265.377 132.348 265.153 132.87 265.153C133.347 265.153 133.685 265.372 133.685 265.77V265.79C133.685 266.232 133.198 266.371 131.915 266.466C130.339 266.58 129.112 267.217 129.112 268.892C129.112 270.413 130.136 271.119 131.597 271.119ZM132.492 269.389C132.025 269.389 131.697 269.161 131.697 268.733C131.697 268.34 131.975 268.037 132.612 267.938C133.049 267.868 133.417 267.778 133.705 267.659V268.295C133.705 268.991 133.114 269.389 132.492 269.389ZM137.741 271H140.485V267.023C140.485 266.148 141.087 265.571 141.897 265.571C142.181 265.571 142.638 265.616 142.911 265.71V263.369C142.693 263.304 142.454 263.264 142.215 263.264C141.4 263.264 140.764 263.741 140.485 264.815H140.406V263.364H137.741V271ZM146.138 271.099C147.212 271.099 147.948 270.523 148.266 269.747H148.325V271H151.05V260.818H148.306V264.696H148.266C147.968 263.92 147.252 263.264 146.118 263.264C144.607 263.264 143.135 264.418 143.135 267.182C143.135 269.827 144.507 271.099 146.138 271.099ZM147.152 268.991C146.396 268.991 145.959 268.315 145.959 267.182C145.959 266.048 146.396 265.372 147.152 265.372C147.908 265.372 148.365 266.048 148.365 267.182C148.365 268.295 147.908 268.991 147.152 268.991ZM153.889 271.159C154.619 271.159 155.271 270.543 155.281 269.767C155.271 269.011 154.619 268.395 153.889 268.395C153.118 268.395 152.487 269.011 152.497 269.767C152.487 270.543 153.118 271.159 153.889 271.159ZM161.346 263.364H159.954V263.026C159.954 262.668 160.093 262.429 160.61 262.429C160.809 262.429 161.107 262.469 161.306 262.528L161.704 260.56C161.386 260.48 160.65 260.341 159.954 260.341C158.284 260.341 157.21 261.256 157.21 263.145V263.364H156.235V265.352H157.21V271H159.954V265.352H161.346V263.364ZM164.218 271.119C165.213 271.119 165.963 270.781 166.426 269.926H166.485V271H169.051V265.77C169.051 264.358 167.713 263.264 165.531 263.264C163.249 263.264 162.125 264.457 162.031 265.849H164.556C164.621 265.377 164.969 265.153 165.491 265.153C165.968 265.153 166.306 265.372 166.306 265.77V265.79C166.306 266.232 165.819 266.371 164.537 266.466C162.961 266.58 161.733 267.217 161.733 268.892C161.733 270.413 162.757 271.119 164.218 271.119ZM165.113 269.389C164.646 269.389 164.318 269.161 164.318 268.733C164.318 268.34 164.596 268.037 165.233 267.938C165.67 267.868 166.038 267.778 166.326 267.659V268.295C166.326 268.991 165.735 269.389 165.113 269.389ZM173.106 266.705C173.111 265.949 173.539 265.491 174.22 265.491C174.911 265.491 175.319 265.949 175.314 266.705V271H178.058V266.128C178.063 264.467 177.014 263.264 175.393 263.264C174.27 263.264 173.38 263.851 173.047 264.815H172.967V263.364H170.362V271H173.106V266.705ZM182.157 266.705C182.162 265.949 182.59 265.491 183.271 265.491C183.962 265.491 184.369 265.949 184.365 266.705V271H187.109V266.128C187.114 264.467 186.065 263.264 184.444 263.264C183.32 263.264 182.431 263.851 182.097 264.815H182.018V263.364H179.413V271H182.157V266.705ZM189.861 273.864C191.78 273.864 192.68 272.899 193.102 271.636L195.886 263.364H193.003L191.75 268.653H191.67L190.437 263.364H187.574L190.258 271.338L190.199 271.477C190.015 271.9 189.483 271.885 188.807 271.646L188.21 273.595C188.638 273.764 189.229 273.864 189.861 273.864Z" fill="#D6D6FA"/>
</svg>
