<svg width="51" height="22" viewBox="0 0 51 22" fill="none" xmlns="http://www.w3.org/2000/svg">
<path d="M7.736 16.296L6.728 17.388V21H0.4V0.223999H6.728V10.136L11.124 5.684H18.6L12.272 12.32L19.104 21H11.46L7.736 16.296ZM29.7475 5.404C32.4355 5.404 34.4888 6.01067 35.9075 7.224C37.3262 8.41867 38.0355 10.2667 38.0355 12.768V21H32.1555V18.984C31.4275 20.5147 29.9808 21.28 27.8155 21.28C26.6022 21.28 25.5662 21.0747 24.7075 20.664C23.8675 20.2347 23.2235 19.6653 22.7755 18.956C22.3462 18.228 22.1315 17.416 22.1315 16.52C22.1315 15.008 22.7102 13.86 23.8675 13.076C25.0248 12.292 26.7795 11.9 29.1315 11.9H31.6795C31.4742 10.7053 30.5128 10.108 28.7955 10.108C28.1048 10.108 27.4048 10.22 26.6955 10.444C25.9862 10.6493 25.3795 10.9387 24.8755 11.312L22.8595 7.14C23.7368 6.59867 24.7915 6.17867 26.0235 5.88C27.2742 5.56267 28.5155 5.404 29.7475 5.404ZM29.7195 17.472C30.1675 17.472 30.5688 17.3507 30.9235 17.108C31.2782 16.8653 31.5395 16.5013 31.7075 16.016V14.952H30.1395C28.8515 14.952 28.2075 15.3813 28.2075 16.24C28.2075 16.5947 28.3382 16.8933 28.5995 17.136C28.8795 17.36 29.2528 17.472 29.7195 17.472ZM46.4263 21.28C45.3623 21.28 44.4756 20.944 43.7663 20.272C43.0756 19.5813 42.7303 18.704 42.7303 17.64C42.7303 16.576 43.0756 15.7173 43.7663 15.064C44.4756 14.392 45.3623 14.056 46.4263 14.056C47.4903 14.056 48.3676 14.392 49.0583 15.064C49.7676 15.7173 50.1223 16.576 50.1223 17.64C50.1223 18.704 49.7676 19.5813 49.0583 20.272C48.3676 20.944 47.4903 21.28 46.4263 21.28Z" fill="white"/>
</svg>
