<svg width="38" height="38" viewBox="0 0 38 38" fill="none" xmlns="http://www.w3.org/2000/svg">
<path d="M28.5803 3.49433C22.395 -0.281152 14.2377 0.00907915 8.17621 4.34389C0.445613 9.87235 -2.49829 21.3051 3.75264 30.046C9.29681 37.7985 20.7639 40.4191 29.5048 34.1682C31.3935 32.8175 33.6868 31.0114 34.1313 28.8016C34.3566 27.6778 33.9856 26.4162 33.0746 25.1425C31.4019 25.542 29.6411 25.5399 28.012 25.2112C27.3502 26.0496 26.0798 27.5224 25.2014 28.1506C20.5454 31.4803 13.4925 30.9475 9.77021 25.7426C6.47198 21.1306 7.23071 14.1152 12.4796 10.3615C17.1795 7.00041 24.2042 7.58651 27.9579 12.8354C30.2352 16.0199 30.1635 16.8015 29.8999 16.9899C29.7682 17.0842 29.3759 17.2319 28.5749 16.1119L26.8002 13.6302C23.9103 9.58916 17.8832 8.12366 13.2492 11.4376C9.31802 14.2489 7.50406 20.1601 10.9122 24.9259C13.8492 29.0327 19.8794 30.3633 24.4475 27.0965C25.6993 26.2012 26.6968 25.0896 27.4179 23.7772C29.5213 24.6297 32.2048 24.4367 33.9178 23.2117C37.7831 20.4475 38.4955 14.7597 34.8204 9.62066C33.0613 7.16092 31.1644 5.06535 28.5803 3.49433ZM17.0019 20.5377C16.3109 19.5713 16.5424 18.1776 17.5526 17.4552C18.5848 16.717 19.9785 16.9485 20.6696 17.9148C21.392 18.925 21.1449 20.2968 20.1127 21.035C19.1024 21.7574 17.7244 21.5479 17.0019 20.5377ZM4.80681 29.2921C2.02688 25.4048 1.07577 19.7118 2.06529 15.6184C2.92954 12.0461 5.51322 7.44328 8.61956 5.75292C8.7138 5.88469 7.2112 7.35758 5.82519 9.64333C4.75903 11.4016 3.85006 13.6117 3.29594 16.1324C2.88278 18.154 2.85907 20.6273 3.22441 22.8555C3.77876 26.2764 4.98251 29.1664 4.80681 29.2921ZM12.3746 24.5107C11.1182 22.7538 10.282 20.5634 10.5162 18.338C10.7784 15.8269 12.2083 13.5097 14 12.6267C14.2513 12.9781 11.9359 14.5676 11.5836 18.9023C11.3062 22.3205 12.7699 24.228 12.3746 24.5107Z" fill="white"/>
</svg>
